<svg xmlns="http://www.w3.org/2000/svg" version="1.1" xmlns:xlink="http://www.w3.org/1999/xlink" xmlns:svgjs="http://svgjs.dev/svgjs" width="1500" height="1500" viewBox="0 0 1500 1500"><rect width="1500" height="1500" fill="#000000"></rect><g transform="matrix(0.6666666666666666,0,0,0.6666666666666666,249.35383103571303,403.552688172043)"><svg viewBox="0 0 359 248" data-background-color="#c8c8c8" preserveAspectRatio="xMidYMid meet" height="1036" width="1500" xmlns="http://www.w3.org/2000/svg" xmlns:xlink="http://www.w3.org/1999/xlink"><g id="tight-bounds" transform="matrix(1,0,0,1,0.23197465817901275,0.4000000000000057)"><svg viewBox="0 0 358.536050683642 247.2" height="247.2" width="358.536050683642"><g><svg viewBox="0 0 395.5199999999999 272.6993389188375" height="247.2" width="358.536050683642"><g transform="matrix(1,0,0,1,0,199.03276902762127)"><svg viewBox="0 0 395.5199999999999 73.66656989121626" height="73.66656989121626" width="395.5199999999999"><g id="textblocktransform"><svg viewBox="0 0 395.5199999999999 73.66656989121626" height="73.66656989121626" width="395.5199999999999" id="textblock"><g><rect width="75.54431999999998" height="3.698143959193889" y="60.32871663339295" fill="#ffffff" data-fill-palette-color="tertiary"></rect><rect width="75.54431999999998" height="3.698143959193889" y="60.32871663339295" x="319.97567999999995" fill="#ffffff" data-fill-palette-color="tertiary"></rect></g><g><svg viewBox="0 0 395.5199999999999 41.00800220598372" height="41.00800220598372" width="395.5199999999999"><g transform="matrix(1,0,0,1,0,0)"><svg width="395.5199999999999" viewBox="1 -37 362.62 37.6" height="41.00800220598372" data-palette-color="#000000"><path d="M17.7 0L12.6 0 1-34.9 5.5-34.9 11.25-17.3 15.1-4.2 15.35-4.2 19.3-17.3 25.1-34.9 29.45-34.9 17.7 0ZM38.7 0L34.7 0 34.7-25.8 38.7-25.8 38.7-21.05 38.95-21.05Q39.4-22.3 40.35-23.38 41.3-24.45 42.8-25.13 44.3-25.8 46.4-25.8L46.4-25.8 47.95-25.8 47.95-21.8 45.6-21.8Q43.45-21.8 41.9-21.23 40.35-20.65 39.52-19.7 38.7-18.75 38.7-17.5L38.7-17.5 38.7 0ZM57.05 0L53.05 0 53.05-25.8 57.05-25.8 57.05 0ZM55.05-31.85L55.05-31.85Q53.8-31.85 53.2-32.48 52.59-33.1 52.59-34.1L52.59-34.1 52.59-34.75Q52.59-35.75 53.2-36.38 53.8-37 55.05-37L55.05-37Q56.34-37 56.92-36.38 57.5-35.75 57.5-34.75L57.5-34.75 57.5-34.1Q57.5-33.1 56.92-32.48 56.34-31.85 55.05-31.85ZM69.54 0L65.54 0 65.54-25.8 69.54-25.8 69.54-21.6 69.74-21.6Q70.69-23.8 72.42-25.1 74.14-26.4 77.04-26.4L77.04-26.4Q81.04-26.4 83.37-23.83 85.69-21.25 85.69-16.55L85.69-16.55 85.69 0 81.69 0 81.69-15.85Q81.69-19.3 80.22-21.05 78.74-22.8 75.84-22.8L75.84-22.8Q74.24-22.8 72.79-22.28 71.34-21.75 70.44-20.65 69.54-19.55 69.54-17.9L69.54-17.9 69.54 0ZM102.69 0.6L102.69 0.6Q99.49 0.6 97.12-1.05 94.74-2.7 93.47-5.75 92.19-8.8 92.19-12.9L92.19-12.9Q92.19-17.05 93.47-20.08 94.74-23.1 97.12-24.75 99.49-26.4 102.69-26.4L102.69-26.4Q105.34-26.4 107.29-25.23 109.24-24.05 110.24-21.6L110.24-21.6 110.44-21.6 110.44-37 114.44-37 114.44 0 110.44 0 110.44-4.2 110.24-4.2Q109.09-1.8 107.22-0.6 105.34 0.6 102.69 0.6ZM103.79-3L103.79-3Q105.64-3 107.14-3.63 108.64-4.25 109.54-5.43 110.44-6.6 110.44-8.25L110.44-8.25 110.44-17.85Q110.44-19.3 109.54-20.4 108.64-21.5 107.14-22.15 105.64-22.8 103.79-22.8L103.79-22.8Q100.44-22.8 98.47-20.68 96.49-18.55 96.49-15.1L96.49-15.1 96.49-10.7Q96.49-7.25 98.47-5.13 100.44-3 103.79-3ZM129.54 0.6L129.54 0.6Q125.44 0.6 123.16-1.5 120.89-3.6 120.89-7.2L120.89-7.2Q120.89-9.65 122.09-11.33 123.29-13 125.71-13.88 128.14-14.75 131.89-14.75L131.89-14.75 136.99-14.75 136.99-17.3Q136.99-20.05 135.49-21.5 133.99-22.95 130.89-22.95L130.89-22.95Q128.59-22.95 126.99-21.9 125.39-20.85 124.34-19.1L124.34-19.1 121.94-21.35Q122.99-23.4 125.29-24.9 127.59-26.4 131.09-26.4L131.09-26.4Q135.74-26.4 138.36-24.1 140.99-21.8 140.99-17.7L140.99-17.7 140.99-3.5 143.94-3.5 143.94 0 141.69 0Q139.54 0 138.54-1.1 137.54-2.2 137.29-3.9L137.29-3.9 137.24-4.2 136.99-4.2Q136.19-1.85 134.21-0.63 132.24 0.6 129.54 0.6ZM130.19-2.8L130.19-2.8Q132.19-2.8 133.71-3.43 135.24-4.05 136.11-5.13 136.99-6.2 136.99-7.5L136.99-7.5 136.99-11.75 131.69-11.75Q128.29-11.75 126.69-10.75 125.09-9.75 125.09-7.85L125.09-7.85 125.09-6.8Q125.09-4.9 126.49-3.85 127.89-2.8 130.19-2.8ZM159.99 0L155.34 0 146.29-25.8 150.29-25.8 154.79-13 157.59-4.2 157.84-4.2 160.64-13 165.24-25.8 169.09-25.8 159.99 0ZM180.83 0.6L180.83 0.6Q176.73 0.6 174.46-1.5 172.18-3.6 172.18-7.2L172.18-7.2Q172.18-9.65 173.38-11.33 174.58-13 177.01-13.88 179.43-14.75 183.18-14.75L183.18-14.75 188.28-14.75 188.28-17.3Q188.28-20.05 186.78-21.5 185.28-22.95 182.18-22.95L182.18-22.95Q179.88-22.95 178.28-21.9 176.68-20.85 175.63-19.1L175.63-19.1 173.23-21.35Q174.28-23.4 176.58-24.9 178.88-26.4 182.38-26.4L182.38-26.4Q187.03-26.4 189.66-24.1 192.28-21.8 192.28-17.7L192.28-17.7 192.28-3.5 195.23-3.5 195.23 0 192.98 0Q190.83 0 189.83-1.1 188.83-2.2 188.58-3.9L188.58-3.9 188.53-4.2 188.28-4.2Q187.48-1.85 185.51-0.63 183.53 0.6 180.83 0.6ZM181.48-2.8L181.48-2.8Q183.48-2.8 185.01-3.43 186.53-4.05 187.41-5.13 188.28-6.2 188.28-7.5L188.28-7.5 188.28-11.75 182.98-11.75Q179.58-11.75 177.98-10.75 176.38-9.75 176.38-7.85L176.38-7.85 176.38-6.8Q176.38-4.9 177.78-3.85 179.18-2.8 181.48-2.8ZM204.93 0L200.93 0 200.93-25.8 204.93-25.8 204.93-21.6 205.13-21.6Q206.08-23.8 207.81-25.1 209.53-26.4 212.43-26.4L212.43-26.4Q216.43-26.4 218.75-23.83 221.08-21.25 221.08-16.55L221.08-16.55 221.08 0 217.08 0 217.08-15.85Q217.08-19.3 215.61-21.05 214.13-22.8 211.23-22.8L211.23-22.8Q209.63-22.8 208.18-22.28 206.73-21.75 205.83-20.65 204.93-19.55 204.93-17.9L204.93-17.9 204.93 0ZM257.38 0L241.53 0 241.53-34.9 255.88-34.9Q260.18-34.9 262.68-32.45 265.18-30 265.18-25.9L265.18-25.9Q265.18-23.3 264.25-21.75 263.33-20.2 262-19.45 260.68-18.7 259.53-18.5L259.53-18.5 259.53-18.2Q260.48-18.15 261.65-17.68 262.83-17.2 263.9-16.25 264.98-15.3 265.68-13.8 266.38-12.3 266.38-10.1L266.38-10.1Q266.38-7.25 265.2-4.95 264.03-2.65 262-1.33 259.98 0 257.38 0L257.38 0ZM245.73-16.2L245.73-3.7 256.08-3.7Q257.88-3.7 259.18-4.33 260.48-4.95 261.18-6.15 261.88-7.35 261.88-9.1L261.88-9.1 261.88-10.8Q261.88-12.55 261.18-13.75 260.48-14.95 259.18-15.58 257.88-16.2 256.08-16.2L256.08-16.2 245.73-16.2ZM245.73-31.2L245.73-19.8 255.38-19.8Q257.03-19.8 258.2-20.38 259.38-20.95 260.03-22.03 260.68-23.1 260.68-24.65L260.68-24.65 260.68-26.35Q260.68-27.9 260.03-28.98 259.38-30.05 258.2-30.63 257.03-31.2 255.38-31.2L255.38-31.2 245.73-31.2ZM280.37 0.6L280.37 0.6Q276.27 0.6 274-1.5 271.72-3.6 271.72-7.2L271.72-7.2Q271.72-9.65 272.92-11.33 274.12-13 276.55-13.88 278.97-14.75 282.72-14.75L282.72-14.75 287.82-14.75 287.82-17.3Q287.82-20.05 286.32-21.5 284.82-22.95 281.72-22.95L281.72-22.95Q279.42-22.95 277.82-21.9 276.22-20.85 275.17-19.1L275.17-19.1 272.77-21.35Q273.82-23.4 276.12-24.9 278.42-26.4 281.92-26.4L281.92-26.4Q286.57-26.4 289.2-24.1 291.82-21.8 291.82-17.7L291.82-17.7 291.82-3.5 294.77-3.5 294.77 0 292.52 0Q290.37 0 289.37-1.1 288.37-2.2 288.12-3.9L288.12-3.9 288.07-4.2 287.82-4.2Q287.02-1.85 285.05-0.63 283.07 0.6 280.37 0.6ZM281.02-2.8L281.02-2.8Q283.02-2.8 284.55-3.43 286.07-4.05 286.95-5.13 287.82-6.2 287.82-7.5L287.82-7.5 287.82-11.75 282.52-11.75Q279.12-11.75 277.52-10.75 275.92-9.75 275.92-7.85L275.92-7.85 275.92-6.8Q275.92-4.9 277.32-3.85 278.72-2.8 281.02-2.8ZM317.77 0L297.87 0 297.87-3.35 312.52-22.3 298.32-22.3 298.32-25.8 317.37-25.8 317.37-22.8 302.42-3.5 317.77-3.5 317.77 0ZM330.27 0.6L330.27 0.6Q326.17 0.6 323.89-1.5 321.62-3.6 321.62-7.2L321.62-7.2Q321.62-9.65 322.82-11.33 324.02-13 326.44-13.88 328.87-14.75 332.62-14.75L332.62-14.75 337.72-14.75 337.72-17.3Q337.72-20.05 336.22-21.5 334.72-22.95 331.62-22.95L331.62-22.95Q329.32-22.95 327.72-21.9 326.12-20.85 325.07-19.1L325.07-19.1 322.67-21.35Q323.72-23.4 326.02-24.9 328.32-26.4 331.82-26.4L331.82-26.4Q336.47-26.4 339.09-24.1 341.72-21.8 341.72-17.7L341.72-17.7 341.72-3.5 344.67-3.5 344.67 0 342.42 0Q340.27 0 339.27-1.1 338.27-2.2 338.02-3.9L338.02-3.9 337.97-4.2 337.72-4.2Q336.92-1.85 334.94-0.63 332.97 0.6 330.27 0.6ZM330.92-2.8L330.92-2.8Q332.92-2.8 334.44-3.43 335.97-4.05 336.84-5.13 337.72-6.2 337.72-7.5L337.72-7.5 337.72-11.75 332.42-11.75Q329.02-11.75 327.42-10.75 325.82-9.75 325.82-7.85L325.82-7.85 325.82-6.8Q325.82-4.9 327.22-3.85 328.62-2.8 330.92-2.8ZM354.37 0L350.37 0 350.37-25.8 354.37-25.8 354.37-21.05 354.62-21.05Q355.06-22.3 356.01-23.38 356.97-24.45 358.47-25.13 359.97-25.8 362.06-25.8L362.06-25.8 363.62-25.8 363.62-21.8 361.26-21.8Q359.12-21.8 357.56-21.23 356.01-20.65 355.19-19.7 354.37-18.75 354.37-17.5L354.37-17.5 354.37 0Z" opacity="1" transform="matrix(1,0,0,1,0,0)" fill="#ffffff" class="wordmark-text-0" data-fill-palette-color="primary" id="text-0"></path></svg></g></svg></g><g transform="matrix(1,0,0,1,75.54431999999998,50.68900733476354)"><svg viewBox="0 0 244.43135999999996 22.97756255645271" height="22.97756255645271" width="244.43135999999996"><g transform="matrix(1,0,0,1,8,0)"><svg width="228.43135999999996" viewBox="3.8 -36.15 365.32 36.75" height="22.97756255645271" data-palette-color="#000000"><path d="M10.5 0L3.8-34.3 8.8-34.3 13.55-9.05 14.35-4.75 14.6-4.75 16.75-8.75 30.5-34.3 35.55-34.3 16.75 0 10.5 0ZM32.15 0L36.8-26.3 40.15-26.3 39.95-22.35 40.25-22.35Q42.85-26.9 47.25-26.9L47.25-26.9Q48.6-26.9 49.55-26.5L49.55-26.5 48.8-22.25 46.95-22.25Q44.15-22.25 42-20.5 39.85-18.75 39.2-15.05L39.2-15.05 36.55 0 32.15 0ZM54.3-31.4L55.15-36.15 59.5-36.15 58.65-31.4 54.3-31.4ZM48.8 0L53.45-26.3 57.85-26.3 53.2 0 48.8 0ZM59.89 0L64.54-26.3 67.74-26.3 67.74-22.75 68.09-22.75Q69.59-24.6 71.94-25.75 74.29-26.9 76.69-26.9L76.69-26.9Q80.49-26.9 82.52-25.43 84.54-23.95 84.54-20.7L84.54-20.7Q84.54-19.45 84.19-17.45L84.19-17.45 81.14 0 76.74 0 79.74-17.15Q79.99-18.8 79.99-19.8L79.99-19.8Q79.99-21.7 78.97-22.48 77.94-23.25 76.09-23.25L76.09-23.25Q74.04-23.25 72.12-22.25 70.19-21.25 68.79-19.4 67.39-17.55 66.94-15.05L66.94-15.05 64.29 0 59.89 0ZM96.99 0.6Q92.74 0.6 90.42-1.95 88.09-4.5 88.09-9.8L88.09-9.8Q88.09-14.9 89.74-18.8 91.39-22.7 94.27-24.8 97.14-26.9 100.69-26.9L100.69-26.9Q106.09-26.9 108.19-23.3L108.19-23.3 108.49-23.3 110.74-36.15 115.14-36.15 108.79 0 105.54 0 105.54-3.55 105.24-3.55Q103.69-1.5 101.57-0.45 99.44 0.6 96.99 0.6L96.99 0.6ZM98.24-3.05Q101.09-3.05 103.07-5.03 105.04-7 106.04-10.2 107.04-13.4 107.04-17.05L107.04-17.05Q107.04-20.15 105.67-21.7 104.29-23.25 101.29-23.25L101.29-23.25Q97.19-23.25 94.94-19.4 92.69-15.55 92.69-9.6L92.69-9.6Q92.69-6.05 94.02-4.55 95.34-3.05 98.24-3.05L98.24-3.05ZM124.14 0.6Q120.29 0.6 118.09-1.83 115.89-4.25 115.89-8.95L115.89-8.95Q115.89-14.3 117.54-18.38 119.19-22.45 122.06-24.68 124.94-26.9 128.49-26.9L128.49-26.9Q131.24-26.9 132.94-26.05 134.64-25.2 135.59-23.3L135.59-23.3 135.89-23.3 137.44-26.3 140.79-26.3 139.54-19.65Q136.84-5 136.84-4.4L136.84-4.4Q136.84-3.05 138.34-3.05L138.34-3.05 140.34-3.05 139.84-0.2Q139.34 0.1 138.46 0.35 137.59 0.6 136.54 0.6L136.54 0.6Q132.89 0.6 132.89-3.15L132.89-3.15Q132.89-3.8 132.94-4.15L132.94-4.15 132.69-4.15Q131.34-1.85 129.04-0.63 126.74 0.6 124.14 0.6L124.14 0.6ZM125.24-3.05Q128.39-3.05 130.46-5.3 132.54-7.55 133.49-10.78 134.44-14 134.44-17.05L134.44-17.05Q134.44-20.15 133.16-21.7 131.89-23.25 129.09-23.25L129.09-23.25Q126.34-23.25 124.39-21.35 122.44-19.45 121.46-16.25 120.49-13.05 120.49-9.2L120.49-9.2Q120.49-3.05 125.24-3.05L125.24-3.05ZM150.09 0L145.09-26.3 149.64-26.3 151.99-13.15Q152.49-10.35 153.09-4.9L153.09-4.9 153.34-4.9Q155.64-10.05 157.29-13.15L157.29-13.15 164.19-26.3 168.79-26.3 154.49 0 150.09 0ZM176.93 0.6Q173.08 0.6 170.88-1.83 168.68-4.25 168.68-8.95L168.68-8.95Q168.68-14.3 170.33-18.38 171.98-22.45 174.86-24.68 177.73-26.9 181.28-26.9L181.28-26.9Q184.03-26.9 185.73-26.05 187.43-25.2 188.38-23.3L188.38-23.3 188.68-23.3 190.23-26.3 193.58-26.3 192.33-19.65Q189.63-5 189.63-4.4L189.63-4.4Q189.63-3.05 191.13-3.05L191.13-3.05 193.13-3.05 192.63-0.2Q192.13 0.1 191.26 0.35 190.38 0.6 189.33 0.6L189.33 0.6Q185.68 0.6 185.68-3.15L185.68-3.15Q185.68-3.8 185.73-4.15L185.73-4.15 185.48-4.15Q184.13-1.85 181.83-0.63 179.53 0.6 176.93 0.6L176.93 0.6ZM178.03-3.05Q181.18-3.05 183.26-5.3 185.33-7.55 186.28-10.78 187.23-14 187.23-17.05L187.23-17.05Q187.23-20.15 185.96-21.7 184.68-23.25 181.88-23.25L181.88-23.25Q179.13-23.25 177.18-21.35 175.23-19.45 174.26-16.25 173.28-13.05 173.28-9.2L173.28-9.2Q173.28-3.05 178.03-3.05L178.03-3.05ZM196.08 0L200.73-26.3 203.93-26.3 203.93-22.75 204.28-22.75Q205.78-24.6 208.13-25.75 210.48-26.9 212.88-26.9L212.88-26.9Q216.68-26.9 218.71-25.43 220.73-23.95 220.73-20.7L220.73-20.7Q220.73-19.45 220.38-17.45L220.38-17.45 217.33 0 212.93 0 215.93-17.15Q216.18-18.8 216.18-19.8L216.18-19.8Q216.18-21.7 215.16-22.48 214.13-23.25 212.28-23.25L212.28-23.25Q210.23-23.25 208.31-22.25 206.38-21.25 204.98-19.4 203.58-17.55 203.13-15.05L203.13-15.05 200.48 0 196.08 0ZM238.03 0L244.08-34.3 259.03-34.3Q263.58-34.3 266.15-32.43 268.73-30.55 268.73-27L268.73-27Q268.73-23.75 266.68-21.3 264.63-18.85 261.58-18L261.58-18 261.58-17.8Q264.03-17.15 265.45-15.35 266.88-13.55 266.88-10.65L266.88-10.65Q266.88-5.25 263.65-2.63 260.43 0 255.58 0L255.58 0 238.03 0ZM246.23-19.65L256.93-19.65Q260.08-19.65 262.05-21.38 264.03-23.1 264.03-25.8L264.03-25.8Q264.03-28.1 262.75-29.13 261.48-30.15 259.08-30.15L259.08-30.15 248.08-30.15 246.23-19.65ZM243.53-4.15L255.23-4.15Q262.08-4.15 262.08-10.75L262.08-10.75Q262.08-15.5 256.88-15.5L256.88-15.5 245.53-15.5 243.53-4.15ZM279.77 0.6Q275.92 0.6 273.72-1.83 271.52-4.25 271.52-8.95L271.52-8.95Q271.52-14.3 273.17-18.38 274.82-22.45 277.7-24.68 280.57-26.9 284.12-26.9L284.12-26.9Q286.87-26.9 288.57-26.05 290.27-25.2 291.22-23.3L291.22-23.3 291.52-23.3 293.07-26.3 296.42-26.3 295.17-19.65Q292.47-5 292.47-4.4L292.47-4.4Q292.47-3.05 293.97-3.05L293.97-3.05 295.97-3.05 295.47-0.2Q294.97 0.1 294.1 0.35 293.22 0.6 292.17 0.6L292.17 0.6Q288.52 0.6 288.52-3.15L288.52-3.15Q288.52-3.8 288.57-4.15L288.57-4.15 288.32-4.15Q286.97-1.85 284.67-0.63 282.37 0.6 279.77 0.6L279.77 0.6ZM280.87-3.05Q284.02-3.05 286.1-5.3 288.17-7.55 289.12-10.78 290.07-14 290.07-17.05L290.07-17.05Q290.07-20.15 288.8-21.7 287.52-23.25 284.72-23.25L284.72-23.25Q281.97-23.25 280.02-21.35 278.07-19.45 277.1-16.25 276.12-13.05 276.12-9.2L276.12-9.2Q276.12-3.05 280.87-3.05L280.87-3.05ZM296.97 0L297.37-2.35 315.72-22.65 301.97-22.65 302.62-26.3 323.27-26.3 322.87-24 304.42-3.65 320.12-3.65 319.47 0 296.97 0ZM332.57 0.6Q328.72 0.6 326.52-1.83 324.32-4.25 324.32-8.95L324.32-8.95Q324.32-14.3 325.97-18.38 327.62-22.45 330.49-24.68 333.37-26.9 336.92-26.9L336.92-26.9Q339.67-26.9 341.37-26.05 343.07-25.2 344.02-23.3L344.02-23.3 344.32-23.3 345.87-26.3 349.22-26.3 347.97-19.65Q345.27-5 345.27-4.4L345.27-4.4Q345.27-3.05 346.77-3.05L346.77-3.05 348.77-3.05 348.27-0.2Q347.77 0.1 346.89 0.35 346.02 0.6 344.97 0.6L344.97 0.6Q341.32 0.6 341.32-3.15L341.32-3.15Q341.32-3.8 341.37-4.15L341.37-4.15 341.12-4.15Q339.77-1.85 337.47-0.63 335.17 0.6 332.57 0.6L332.57 0.6ZM333.67-3.05Q336.82-3.05 338.89-5.3 340.97-7.55 341.92-10.78 342.87-14 342.87-17.05L342.87-17.05Q342.87-20.15 341.59-21.7 340.32-23.25 337.52-23.25L337.52-23.25Q334.77-23.25 332.82-21.35 330.87-19.45 329.89-16.25 328.92-13.05 328.92-9.2L328.92-9.2Q328.92-3.05 333.67-3.05L333.67-3.05ZM351.72 0L356.37-26.3 359.72-26.3 359.52-22.35 359.82-22.35Q362.42-26.9 366.82-26.9L366.82-26.9Q368.17-26.9 369.12-26.5L369.12-26.5 368.37-22.25 366.52-22.25Q363.72-22.25 361.57-20.5 359.42-18.75 358.77-15.05L358.77-15.05 356.12 0 351.72 0Z" opacity="1" transform="matrix(1,0,0,1,0,0)" fill="#ffffff" class="slogan-text-1" data-fill-palette-color="secondary" id="text-1"></path></svg></g></svg></g></svg></g></svg></g><g transform="matrix(1,0,0,1,107.92462061496914,0)"><svg viewBox="0 0 179.67075877006164 179.67075877006164" height="179.67075877006164" width="179.67075877006164"><g><svg></svg></g><g id="icon-0"><svg viewBox="0 0 179.67075877006164 179.67075877006164" height="179.67075877006164" width="179.67075877006164"><g><path d="M0 89.835c0-49.615 40.221-89.835 89.835-89.835 49.615 0 89.835 40.221 89.836 89.835 0 49.615-40.221 89.835-89.836 89.836-49.615 0-89.835-40.221-89.835-89.836zM89.835 175.973c47.572 0 86.137-38.565 86.138-86.138 0-47.572-38.565-86.137-86.138-86.137-47.572 0-86.137 38.565-86.137 86.137 0 47.572 38.565 86.137 86.137 86.138z" data-fill-palette-color="tertiary" fill="#ffffff" stroke="transparent"></path></g><g transform="matrix(1,0,0,1,37.59057542950427,37.569109712291926)"><svg viewBox="0 0 104.4896079110531 104.53253934547779" height="104.53253934547779" width="104.4896079110531"><g><svg xmlns="http://www.w3.org/2000/svg" data-name="Layer 1" viewBox="1.9914483139484456 1.9792198461133816 60.008551686051554 60.03320727863281" x="0" y="0" height="104.53253934547779" width="104.4896079110531" class="icon-dxe-0" data-fill-palette-color="accent" id="dxe-0"><path class="cls-1" d="M61 31H31A1 1 0 0 0 30 32V61A1 1 0 0 0 31 62H61A1 1 0 0 0 62 61V32A1 1 0 0 0 61 31ZM60 36.5A1.5 1.5 0 0 1 57 36.5V33H60ZM55 36.5A1.5 1.5 0 0 1 52 36.5V33H55ZM50 36.5A1.5 1.5 0 0 1 47 36.5V33H50ZM45 36.5A1.5 1.5 0 0 1 42 36.5V33H45ZM40 36.5A1.5 1.5 0 0 1 37 36.5V33H40ZM32 33H35V36.5A1.5 1.5 0 0 1 32 36.5ZM36 60V50H42V60ZM44 60V49A1 1 0 0 0 43 48H35A1 1 0 0 0 34 49V60H32V39.649A3.45 3.45 0 0 0 36 38.942 3.483 3.483 0 0 0 41 38.942 3.483 3.483 0 0 0 46 38.942 3.483 3.483 0 0 0 51 38.942 3.483 3.483 0 0 0 56 38.942 3.45 3.45 0 0 0 60 39.649V60Z" stroke="#000000" stroke-miterlimit="10" fill="#ffffff" data-fill-palette-color="accent"></path><path class="cls-1" d="M20.1 55A1 1 0 0 0 21.065 54.259L23.749 44.259V44.252L24.6 41H28V39H23.826A1 1 0 0 0 22.858 39.748L22.01 43H4A1 1 0 0 0 3.034 44.259L5.717 54.259A1 1 0 0 0 6.683 55H8.5V56.184A3 3 0 1 0 10.5 56.184V55H16.5V56.184A3 3 0 1 0 18.5 56.184V55ZM9.5 60A1 1 0 1 1 10.5 59 1 1 0 0 1 9.5 60ZM17.5 60A1 1 0 1 1 18.5 59 1 1 0 0 1 17.5 60ZM5.3 45H21.479L19.333 53H7.45Z" stroke="#000000" stroke-miterlimit="10" fill="#ffffff" data-fill-palette-color="accent"></path><path class="cls-1" d="M55 12H49.941A9 9 0 0 0 32.059 12H23.949A11 11 0 1 0 7.465 22.49C7.477 22.498 7.486 22.509 7.499 22.517S7.532 22.532 7.548 22.541A11 11 0 0 0 10.056 23.588C10.138 23.611 10.221 23.631 10.304 23.652Q10.826 23.784 11.367 23.865C11.467 23.881 11.567 23.899 11.673 23.912A10 10 0 0 0 14.327 23.912C14.427 23.899 14.527 23.881 14.633 23.865Q15.175 23.784 15.696 23.652C15.779 23.631 15.862 23.611 15.944 23.588A11 11 0 0 0 18.452 22.541C18.468 22.532 18.485 22.526 18.501 22.517S18.523 22.498 18.535 22.49A11 11 0 0 0 23.949 14H32.059A9 9 0 0 0 49.941 14H54V25.586L51.707 23.293 50.293 24.707 54.293 28.707A1 1 0 0 0 55.707 28.707L59.707 24.707 58.293 23.293 56 25.586V13A1 1 0 0 0 55 12ZM13 14A3 3 0 1 1 16 11 3 3 0 0 1 13 14ZM12.144 16H13.856A3.147 3.147 0 0 1 17 19.144V21.05L16.93 21.084A9 9 0 0 1 16.084 21.444L16.012 21.47A9.1 9.1 0 0 1 9.988 21.47L9.916 21.444A9 9 0 0 1 9.07 21.084L9 21.05V19.144A3.147 3.147 0 0 1 12.144 16ZM19 19.689V19.144A5.13 5.13 0 0 0 16.359 14.678 5 5 0 1 0 9.641 14.678 5.13 5.13 0 0 0 7 19.144V19.689A9 9 0 1 1 19 19.689ZM34 13A7 7 0 0 1 40 6.08V8.039A3.21 3.21 0 0 0 37.749 11.076C37.749 13.334 39.529 13.876 40.707 14.239 42.02 14.639 42.251 14.828 42.251 15.493A1.252 1.252 0 0 1 39.751 15.493H37.751A3.21 3.21 0 0 0 40 18.53V19.92A7 7 0 0 1 34 13ZM42 19.92V18.53A3.21 3.21 0 0 0 44.251 15.493C44.251 13.231 42.47 12.687 41.291 12.326 39.979 11.926 39.749 11.738 39.749 11.076A1.252 1.252 0 0 1 42.249 11.076H44.249A3.21 3.21 0 0 0 42 8.039V6.08A6.991 6.991 0 0 1 42 19.92Z" stroke="#000000" stroke-miterlimit="10" fill="#ffffff" data-fill-palette-color="accent"></path><path class="cls-1" d="M14 41V29.414L16.293 31.707 17.707 30.293 13.707 26.293A1 1 0 0 0 12.293 26.293L8.293 30.293 9.707 31.707 12 29.414V41Z" stroke="#000000" stroke-miterlimit="10" fill="#ffffff" data-fill-palette-color="accent"></path><path class="cls-1" d="M57 42H47A1 1 0 0 0 46 43V50A1 1 0 0 0 47 51H57A1 1 0 0 0 58 50V43A1 1 0 0 0 57 42ZM56 49H48V44H56Z" stroke="#000000" stroke-miterlimit="10" fill="#ffffff" data-fill-palette-color="accent"></path></svg></g></svg></g></svg></g></svg></g><g></g></svg></g><defs></defs></svg><rect width="358.536050683642" height="247.2" fill="none" stroke="none" visibility="hidden"></rect></g></svg></g></svg>